# xmcd
#
# Track frame offsets: 
#        150
#        18195
#        39157
#        57077
#        75195
#
# Disc length: 1215 seconds
#
# Revision: 0
# Processed by: cddbd v1.5.2PL0 Copyright (c) Steve Scherf et al.
# Submitted via: ExactAudioCopyFreeDBPlugin 1.0
#
DISCID=2404bd05
DTITLE=K.I.Z. - Spasst (Single)
DYEAR=2007
DGENRE=Rap
TTITLE0=Spasst (Single Version)
TTITLE1=Spasst (Tai Jason RMX)
TTITLE2=Spasst (Instrumental)
TTITLE3=Walpurgisnacht (Flashgordon RMX)
TTITLE4=Endzeit
EXTD=
EXTT0=
EXTT1=
EXTT2=
EXTT3=
EXTT4=
PLAYORDER=
